<?xml version="1.0" encoding="utf-8"?>
<!-- Generator: Adobe Illustrator 21.0.0, SVG Export Plug-In . SVG Version: 6.00 Build 0)  -->
<svg version="1.1" id="Layer_1" xmlns="http://www.w3.org/2000/svg" xmlns:xlink="http://www.w3.org/1999/xlink" x="0px" y="0px"
	 viewBox="0 0 357.7 208" style="enable-background:new 0 0 357.7 208;" xml:space="preserve">
<style type="text/css">
	.st0{fill:none;}
	.st1{fill:#86D3E6;}
	.st2{fill:#EBF7FA;}
	.st3{font-family:'ArialMT';}
	.st4{font-size:12px;}
	.st5{font-family:'Avenir-Heavy';}
	.st6{font-size:11px;}
	.st7{fill:#FFFFFF;}
	.st8{font-family:'Avenir-Light';}
	.st9{fill:none;stroke:#FFFFFF;stroke-linecap:round;stroke-miterlimit:10;}
	.st10{fill:none;stroke:#FFFFFF;stroke-linecap:round;stroke-miterlimit:10;stroke-dasharray:0,2.5168;}
</style>
<rect y="0" class="st0" width="357.7" height="208"/>
<g>
	<g>
		<path class="st1" d="M351.5,195.3H6.2v-36h345.3V195.3"/>
		<path class="st1" d="M351.5,123.3H6.2v-36h345.3V123.3"/>
		<path class="st1" d="M351.5,63.3H6.2v-36h345.3l0,0H6.2v1h345.3V63.3"/>
		<path class="st2" d="M351.5,28.3H6.2v-1h345.3V28.3"/>
		<polyline points="6.2,28.3 351.5,28.3 351.5,27.3 6.2,27.3 6.2,28.3 		"/>
		<polyline points="98.3,195.3 98.3,27.8 97.8,27.8 97.8,195.3 		"/>
		<text transform="matrix(1 0 0 1 16.7196 18.2936)" class="st3 st4">ICO Timeline</text>
		<text transform="matrix(1 0 0 1 66.3573 42.2936)" class="st5 st6">Who</text>
		<text transform="matrix(1 0 0 1 60.5497 78.2936)" class="st5 st6">When</text>
		<text transform="matrix(1 0 0 1 11.0726 102.2936)" class="st5 st6">Number of EZ8 </text>
		<text transform="matrix(1 0 0 1 55.8726 115.4938)" class="st5 st6">tokens</text>
		<text transform="matrix(1 0 0 1 49.3739 138.3014)" class="st5 st6">Amount </text>
		<text transform="matrix(1 0 0 1 29.4739 151.5016)" class="st5 st6">raised (US$)</text>
		<text transform="matrix(1 0 0 1 15.0765 174.2936)" class="st5 st6">Per participant </text>
		<text transform="matrix(1 0 0 1 67.9766 187.4938)" class="st5 st6">limit</text>
		<text transform="matrix(1 0 0 1 106.2489 18.2936)" class="st7 st3 st6">PRE-ICO</text>
		<text transform="matrix(1 0 0 1 106.2489 42.2936)" class="st8 st6">Private </text>
		<text transform="matrix(1 0 0 1 106.2489 55.4938)" class="st8 st6">(40% bonus)</text>
		<text transform="matrix(1 0 0 1 106.2489 78.2936)" class="st8 st6">Aug 2018</text>
		<text transform="matrix(1 0 0 1 106.2489 102.2936)" class="st8 st6">Up to 62.5 mn</text>
		<text transform="matrix(1 0 0 1 106.2489 138.3014)" class="st8 st6">Up to $5 mn</text>
		<text transform="matrix(1 0 0 1 106.2489 174.2936)" class="st8 st6">$25,000  </text>
		<text transform="matrix(1 0 0 1 106.2489 187.4938)" class="st8 st6">to $5 mn</text>
		<text transform="matrix(1 0 0 1 185.9989 18.2936)" class="st7 st3 st6">I</text>
		<text transform="matrix(1 0 0 1 189.8989 18.2936)" class="st7 st3 st6">C</text>
		<text transform="matrix(1 0 0 1 197.3989 18.2936)" class="st7 st3 st6">O </text>
		<text transform="matrix(1 0 0 1 207.6989 18.2936)" class="st7 st3 st6">WA</text>
		<text transform="matrix(1 0 0 1 224.1989 18.2936)" class="st7 st3 st6">V</text>
		<text transform="matrix(1 0 0 1 232.3989 18.2936)" class="st7 st3 st6">E 1</text>
		<text transform="matrix(1 0 0 1 185.9989 42.2936)" class="st8 st6">Public </text>
		<text transform="matrix(1 0 0 1 185.9989 55.4938)" class="st8 st6">(30% bonus)</text>
		<text transform="matrix(1 0 0 1 185.9989 78.2936)" class="st8 st6">Sept. 2018</text>
		<text transform="matrix(1 0 0 1 185.9989 102.2936)" class="st8 st6">Up to 112.5 mn</text>
		<text transform="matrix(1 0 0 1 185.9989 138.3014)" class="st8 st6">Up to $9 mn</text>
		<text transform="matrix(1 0 0 1 185.9989 174.2936)" class="st8 st6">$100 to $1 mn</text>
		<text transform="matrix(1 0 0 1 273.7489 18.2936)" class="st7 st3 st6">I</text>
		<text transform="matrix(1 0 0 1 277.6489 18.2936)" class="st7 st3 st6">C</text>
		<text transform="matrix(1 0 0 1 285.1489 18.2936)" class="st7 st3 st6">O </text>
		<text transform="matrix(1 0 0 1 295.449 18.2936)" class="st7 st3 st6">WA</text>
		<text transform="matrix(1 0 0 1 311.949 18.2936)" class="st7 st3 st6">V</text>
		<text transform="matrix(1 0 0 1 320.1489 18.2936)" class="st7 st3 st6">E 2</text>
		<text transform="matrix(1 0 0 1 273.7489 42.2936)" class="st8 st6">Public </text>
		<text transform="matrix(1 0 0 1 273.7489 55.4938)" class="st8 st6">(20% bonus)</text>
		<text transform="matrix(1 0 0 1 273.7489 78.2936)" class="st8 st6">October 2018</text>
		<text transform="matrix(1 0 0 1 273.7489 102.2936)" class="st8 st6">Up to 187.5 mn</text>
		<text transform="matrix(1 0 0 1 273.7489 138.3014)" class="st8 st6">Up to $15 mn</text>
		<text transform="matrix(1 0 0 1 273.7489 174.2936)" class="st8 st6">$50 to $1 mn</text>
	</g>
	<g>
		<g>
			<line class="st9" x1="178" y1="29.2" x2="178" y2="29.2"/>
			<line class="st10" x1="178" y1="31.7" x2="178" y2="194"/>
			<line class="st9" x1="178" y1="195.3" x2="178" y2="195.3"/>
		</g>
	</g>
	<g>
		<g>
			<line class="st9" x1="265.2" y1="29.2" x2="265.2" y2="29.2"/>
			<line class="st10" x1="265.2" y1="31.7" x2="265.2" y2="194"/>
			<line class="st9" x1="265.2" y1="195.3" x2="265.2" y2="195.3"/>
		</g>
	</g>
</g>
</svg>
