<?xml version="1.0" encoding="utf-8"?>
<!-- Generator: Adobe Illustrator 21.0.0, SVG Export Plug-In . SVG Version: 6.00 Build 0)  -->
<svg version="1.1" id="Layer_1" xmlns="http://www.w3.org/2000/svg" xmlns:xlink="http://www.w3.org/1999/xlink" x="0px" y="0px"
	 viewBox="0 0 535.7 158" style="enable-background:new 0 0 535.7 158;" xml:space="preserve">
<style type="text/css">
	.st0{fill:none;}
	.st1{fill:#86D3E6;}
	.st2{fill:#EBF7FA;}
	.st3{font-family:'ArialMT';}
	.st4{font-size:12px;}
	.st5{font-family:'Avenir-Heavy';}
	.st6{font-size:11px;}
	.st7{fill:#FFFFFF;}
	.st8{font-family:'Avenir-Light';}
	.st9{fill:none;stroke:#FFFFFF;stroke-linecap:round;stroke-miterlimit:10;}
	.st10{fill:none;stroke:#FFFFFF;stroke-linecap:round;stroke-miterlimit:10;stroke-dasharray:0,2.5152;}
</style>
<rect y="0.3" class="st0" width="535.7" height="180.3"/>
<g>
	<path class="st1" d="M527,147.3v-24H8.7v24H527z"/>
	<path class="st1" d="M527,99.3H8.7v-24H527V99.3"/>
	<path class="st1" d="M527,51.3H8.7v-24H527l0,0H8.7v1H527V51.3"/>
	<path class="st2" d="M527,28.3H8.7v-1H527V28.3"/>
	<polyline points="8.7,28.3 527,28.3 527,27.3 8.7,27.3 8.7,28.3 	"/>
	<polyline points="144.8,147.3 144.8,27.8 144.3,27.8 144.3,147.3 	"/>
	<text transform="matrix(1 0 0 1 63.2196 18.2936)" class="st3 st4">ICO Timeline</text>
	<text transform="matrix(1 0 0 1 112.8573 42.2936)" class="st5 st6">Who</text>
	<text transform="matrix(1 0 0 1 107.0497 66.2936)" class="st5 st6">When</text>
	<text transform="matrix(1 0 0 1 19.909 90.2936)" class="st5 st6">Number of EZ8 tokens</text>
	<text transform="matrix(1 0 0 1 32.3392 114.3014)" class="st5 st6">Amount raised (US$)</text>
	<text transform="matrix(1 0 0 1 36.5521 138.2936)" class="st5 st6">Per participant limit</text>
	<text transform="matrix(1 0 0 1 152.7489 18.2936)" class="st7 st3 st6">PRE-ICO</text>
	<text transform="matrix(1 0 0 1 152.7489 42.2936)" class="st8 st6">Private (40% bonus)</text>
	<text transform="matrix(1 0 0 1 152.7489 66.2936)" class="st8 st6">August 2018</text>
	<text transform="matrix(1 0 0 1 152.7489 90.2936)" class="st8 st6">Up to 62.5 million</text>
	<text transform="matrix(1 0 0 1 152.7489 114.3014)" class="st8 st6">Up to $5 million</text>
	<text transform="matrix(1 0 0 1 152.7489 138.2936)" class="st8 st6">$25,000 to $5 million</text>
	<text transform="matrix(1 0 0 1 282.4989 18.2936)" class="st7 st3 st6">I</text>
	<text transform="matrix(1 0 0 1 286.3989 18.2936)" class="st7 st3 st6">C</text>
	<text transform="matrix(1 0 0 1 293.8989 18.2936)" class="st7 st3 st6">O </text>
	<text transform="matrix(1 0 0 1 304.199 18.2936)" class="st7 st3 st6">WA</text>
	<text transform="matrix(1 0 0 1 320.699 18.2936)" class="st7 st3 st6">V</text>
	<text transform="matrix(1 0 0 1 328.8989 18.2936)" class="st7 st3 st6">E 1</text>
	<text transform="matrix(1 0 0 1 282.4989 42.2936)" class="st8 st6">Public (30% bonus)</text>
	<text transform="matrix(1 0 0 1 282.4989 66.2936)" class="st8 st6">September 2018</text>
	<text transform="matrix(1 0 0 1 282.4989 90.2936)" class="st8 st6">Up to 112.5 million</text>
	<text transform="matrix(1 0 0 1 282.4989 114.3014)" class="st8 st6">Up to $9 million</text>
	<text transform="matrix(1 0 0 1 282.4989 138.2936)" class="st8 st6">$100 to $1 million</text>
	<text transform="matrix(1 0 0 1 412.2489 18.2936)" class="st7 st3 st6">I</text>
	<text transform="matrix(1 0 0 1 416.1489 18.2936)" class="st7 st3 st6">C</text>
	<text transform="matrix(1 0 0 1 423.6489 18.2936)" class="st7 st3 st6">O </text>
	<text transform="matrix(1 0 0 1 433.949 18.2936)" class="st7 st3 st6">WA</text>
	<text transform="matrix(1 0 0 1 450.449 18.2936)" class="st7 st3 st6">V</text>
	<text transform="matrix(1 0 0 1 458.6489 18.2936)" class="st7 st3 st6">E 2</text>
	<text transform="matrix(1 0 0 1 412.2489 42.2936)" class="st8 st6">Public (20% bonus)</text>
	<text transform="matrix(1 0 0 1 412.2489 66.2936)" class="st8 st6">October 2018</text>
	<text transform="matrix(1 0 0 1 412.2489 90.2936)" class="st8 st6">Up to 187.5 million</text>
	<text transform="matrix(1 0 0 1 412.2489 114.3014)" class="st8 st6">Up to $15 million</text>
	<text transform="matrix(1 0 0 1 412.2489 138.2936)" class="st8 st6">$50 to $1 million</text>
</g>
<g>
	<g>
		<line class="st9" x1="274.8" y1="29.1" x2="274.8" y2="29.1"/>
		<line class="st10" x1="274.8" y1="31.6" x2="274.8" y2="146"/>
		<line class="st9" x1="274.8" y1="147.3" x2="274.8" y2="147.3"/>
	</g>
</g>
<g>
	<g>
		<line class="st9" x1="405.2" y1="29.1" x2="405.2" y2="29.1"/>
		<line class="st10" x1="405.2" y1="31.6" x2="405.2" y2="146"/>
		<line class="st9" x1="405.2" y1="147.3" x2="405.2" y2="147.3"/>
	</g>
</g>
</svg>
